# xmcd CD database file
# Copyright (C) 1993-1998 Ti Kan
#
# Track frame offsets:
# 	150
# 	9852
# 	18838
# 	31855
# 	42482
# 	53211
# 	65740
# 	77400
# 	88392
# 	100004
# 	111123
# 	124617
# 	130089
# 	141115
# 	167788
# 	178789
# 	189405
# 	200867
# 	214292
# 	224333
#
# Disc length: 3164 seconds
#
# Revision: 1
# Processed by: cddbd v1.4b41PL1 Copyright (c) Steve Scherf et al.
# Submitted via: DiscPlay 3.4.1
#
DISCID=1c0c5a14
DTITLE=Johnny Winter - Winter Heat
DYEAR=1900
DGENRE=
TTITLE0=Ice Cube
TTITLE1=School Day Blues
TTITLE2=You Know I Love You
TTITLE3=That's What Love Does
TTITLE4=Gone for Bad
TTITLE5=Easy Lovin' Girl
TTITLE6=Avocado Green
TTITLE7=Ballad of Bertha Glutz
TTITLE8=Coming Up Fast - Part 1
TTITLE9=Coming Up Fast - Part 2
TTITLE10=Tramp
TTITLE11=Don't Drink Whiskey
TTITLE12=Living in the Blues
TTITLE13=Going Down Slow
TTITLE14=Suicide Won't Satisfy
TTITLE15=Blue Suede Shoes
TTITLE16=I Wonder if I Care as Much
TTITLE17=Birds Can't Row Boats
TTITLE18=Sloppy Drunk
TTITLE19=The Mistress
EXTD=
EXTT0=
EXTT1=
EXTT2=
EXTT3=
EXTT4=
EXTT5=
EXTT6=
EXTT7=
EXTT8=
EXTT9=
EXTT10=
EXTT11=
EXTT12=
EXTT13=
EXTT14=
EXTT15=
EXTT16=
EXTT17=
EXTT18=
EXTT19=
PLAYORDER=
